<svg width="302" height="302" xmlns="http://www.w3.org/2000/svg" xmlns:xlink="http://www.w3.org/1999/xlink" xml:space="preserve" overflow="hidden"><defs><clipPath id="clip0"><rect x="714" y="369" width="302" height="302"/></clipPath><clipPath id="clip1"><path d="M714 455.894C714 407.904 752.904 369 800.894 369L929.106 369C977.096 369 1016 407.904 1016 455.894L1016 584.106C1016 632.096 977.096 671 929.106 671L800.894 671C752.904 671 714 632.096 714 584.106Z" fill-rule="evenodd" clip-rule="evenodd"/></clipPath><linearGradient x1="1000.79" y1="451.564" x2="1000.79" y2="475.317" gradientUnits="userSpaceOnUse" spreadMethod="pad" id="fill2"><stop offset="0" stop-color="#000000" stop-opacity="0.3"/><stop offset="1" stop-color="#FFFFFF" stop-opacity="0"/></linearGradient><linearGradient x1="1000.79" y1="526.641" x2="1000.79" y2="552.291" gradientUnits="userSpaceOnUse" spreadMethod="pad" id="fill3"><stop offset="0" stop-color="#000000" stop-opacity="0.2"/><stop offset="1" stop-color="#FFFFFF" stop-opacity="0"/></linearGradient><linearGradient x1="1000.79" y1="602.735" x2="1000.79" y2="621.824" gradientUnits="userSpaceOnUse" spreadMethod="pad" id="fill4"><stop offset="0" stop-color="#000000" stop-opacity="0.2"/><stop offset="1" stop-color="#FFFFFF" stop-opacity="0"/></linearGradient><linearGradient x1="985.594" y1="520" x2="1000.69" y2="520" gradientUnits="userSpaceOnUse" spreadMethod="pad" id="fill5"><stop offset="0" stop-color="#000000" stop-opacity="0.2"/><stop offset="1" stop-color="#FFFFFF" stop-opacity="0"/></linearGradient></defs><g clip-path="url(#clip0)" transform="translate(-714 -369)"><g clip-path="url(#clip1)"><path d="M950.566 671 779.432 671C743.367 671.072 714.071 641.893 713.999 605.828 713.999 605.741 713.999 605.654 713.999 605.567L713.999 434.433C713.927 398.368 743.106 369.072 779.171 369 779.258 369 779.345 369 779.432 369L950.566 369C986.631 368.928 1015.93 398.107 1016 434.172 1016 434.259 1016 434.346 1016 434.433L1016 605.567C1016.07 641.632 986.892 670.928 950.827 671 950.74 671 950.653 671 950.566 671Z" fill="#D8D6CC" fill-rule="evenodd"/><path d="M1015.99 602.734 1015.99 605.553C1016.04 623.507 1008.68 640.685 995.659 653.041 992.575 655.989 989.203 658.62 985.592 660.893L985.592 602.734Z" fill="#4CD964" fill-rule="evenodd"/><path d="M985.584 527.23 1016 527.23 1016 602.73 985.584 602.73Z" fill="#FF9500"/><path d="M985.584 451.73 1016 451.73 1016 527.23 985.584 527.23Z" fill="#5AC8FA"/><path d="M985.584 451.73 1016 451.73 1016 476.897 985.584 476.897Z" fill="url(#fill2)"/><path d="M985.586 527.233 1016 527.233 1016 552.4 985.586 552.4Z" fill="url(#fill3)"/><path d="M985.584 602.734 985.584 622.868 1013.63 622.868C1015.18 617.232 1015.98 611.414 1016 605.567L1016 602.734Z" fill="url(#fill4)" fill-rule="evenodd"/><path d="M1016 434.433C1016.04 412.009 1004.55 391.138 985.584 379.171L985.584 451.731 1016 451.731Z" fill="#C4C2BA" fill-rule="evenodd"/><path d="M855.397 620.66C907.546 620.714 949.863 578.482 949.916 526.334 949.97 474.185 907.738 431.868 855.59 431.814 803.441 431.761 761.123 473.993 761.07 526.141 761.07 526.173 761.07 526.206 761.07 526.238 761.26 578.27 803.365 620.418 855.397 620.66ZM855.397 557.808C823.249 557.808 799.282 572.727 791.678 585.529 758.939 550.313 760.946 495.224 796.161 462.485 831.377 429.745 886.466 431.752 919.205 466.967 950.306 500.42 950.267 552.219 919.116 585.625 911.512 572.727 887.641 557.808 855.397 557.808ZM855.397 541.156C873.878 541.156 888.026 525.467 888.026 504.966 888.026 485.715 873.589 469.545 855.397 469.545 837.302 469.545 822.768 485.715 822.864 504.966 822.864 525.467 837.013 541.06 855.397 541.156Z" fill="#A9A29A"/><path d="M985.593 660.824C991.271 657.24 996.365 652.803 1000.69 647.668L1000.69 392.332C996.365 387.197 991.271 382.76 985.593 379.176Z" fill="url(#fill5)" fill-rule="evenodd"/></g></g></svg>